<!DOCTYPE svg PUBLIC "-//W3C//DTD SVG 1.1//EN" "http://www.w3.org/Graphics/SVG/1.1/DTD/svg11.dtd">
<!-- Uploaded to: SVG Repo, www.svgrepo.com, Transformed by: SVG Repo Mixer Tools -->
<svg fill="#EBEEF4" height="100px" width="100px" version="1.1" id="Layer_1" xmlns="http://www.w3.org/2000/svg" xmlns:xlink="http://www.w3.org/1999/xlink" viewBox="0 0 512 512" xml:space="preserve" stroke="#EBEEF4" transform="matrix(1, 0, 0, 1, 0, 0)rotate(0)">
<g id="SVGRepo_bgCarrier" stroke-width="0"/>
<g id="SVGRepo_tracerCarrier" stroke-linecap="round" stroke-linejoin="round" stroke="#3392EA" stroke-width="1.024"/>
<g id="SVGRepo_iconCarrier"> <g> <g> <path d="M378.521,0.364l-98.761,19.765V0H173.654h-31.207H36.351v509.722h106.095h31.207h106.105V189.897L344.213,512 l131.435-26.308L378.521,0.364z M84.505,63.455h41.61v31.207h-41.61V63.455z M142.446,478.514H67.559v-54.02h74.888V478.514z M190.61,63.455h41.61v31.207h-41.61V63.455z M248.552,478.514h-74.898v-54.02h74.898V478.514z M312.153,110.433l-5.919-30.635 l39.592-7.646l5.919,30.635L312.153,110.433z M358.09,422.279l70.248-13.908l10.579,52.845l-70.227,14.054L358.09,422.279z"/> </g> </g> </g>
</svg>